<svg width="32" height="32" viewBox="0 0 32 32" fill="none" xmlns="http://www.w3.org/2000/svg">
<rect width="31.8107" height="31.8107" rx="9.94083" fill="#030213" fill-opacity="0.1"/>
<path d="M20.5456 19.22H21.871C22.2686 19.22 22.5337 18.9549 22.5337 18.5573V16.5691C22.5337 15.9727 22.0698 15.4425 21.5397 15.3099C20.3468 14.9786 18.5574 14.5809 18.5574 14.5809C18.5574 14.5809 17.6959 13.6531 17.0994 13.0567C16.7681 12.7916 16.3704 12.5928 15.9065 12.5928H11.2675C10.8698 12.5928 10.5385 12.8579 10.3397 13.1892L9.41184 15.1111C9.32408 15.3671 9.2793 15.6358 9.2793 15.9064V18.5573C9.2793 18.9549 9.54439 19.22 9.94202 19.22H11.2675" stroke="#030213" stroke-width="1.32544" stroke-linecap="round" stroke-linejoin="round"/>
<path d="M12.593 20.5444C13.325 20.5444 13.9185 19.951 13.9185 19.219C13.9185 18.487 13.325 17.8936 12.593 17.8936C11.861 17.8936 11.2676 18.487 11.2676 19.219C11.2676 19.951 11.861 20.5444 12.593 20.5444Z" stroke="#030213" stroke-width="1.32544" stroke-linecap="round" stroke-linejoin="round"/>
<path d="M13.918 19.2188H17.8943" stroke="#030213" stroke-width="1.32544" stroke-linecap="round" stroke-linejoin="round"/>
<path d="M19.22 20.5444C19.952 20.5444 20.5454 19.951 20.5454 19.219C20.5454 18.487 19.952 17.8936 19.22 17.8936C18.488 17.8936 17.8945 18.487 17.8945 19.219C17.8945 19.951 18.488 20.5444 19.22 20.5444Z" stroke="#030213" stroke-width="1.32544" stroke-linecap="round" stroke-linejoin="round"/>
</svg>
