<svg width="16" height="16" viewBox="0 0 16 16" fill="none" xmlns="http://www.w3.org/2000/svg">
<path d="M1.14258 4.56652C1.14258 3.98918 1.37193 3.43548 1.78017 3.02724C2.18841 2.619 2.74211 2.38965 3.31945 2.38965H12.027C12.6043 2.38965 13.158 2.619 13.5662 3.02724C13.9745 3.43548 14.2038 3.98918 14.2038 4.56652V11.8228C14.2038 12.4001 13.9745 12.9538 13.5662 13.3621C13.158 13.7703 12.6043 13.9996 12.027 13.9996H3.31945C2.74211 13.9996 2.18841 13.7703 1.78017 13.3621C1.37193 12.9538 1.14258 12.4001 1.14258 11.8228V4.56652Z" stroke="#717182" stroke-width="1.33" stroke-linecap="round" stroke-linejoin="round"/>
<path d="M9.84992 5.29199H11.3012M9.84992 8.19449H11.3012M4.04492 11.097H11.3012M4.04492 6.74324C4.04492 7.12814 4.19782 7.49727 4.46998 7.76943C4.74215 8.04159 5.11128 8.19449 5.49617 8.19449C5.88107 8.19449 6.2502 8.04159 6.52236 7.76943C6.79452 7.49727 6.94742 7.12814 6.94742 6.74324C6.94742 6.35835 6.79452 5.98922 6.52236 5.71705C6.2502 5.44489 5.88107 5.29199 5.49617 5.29199C5.11128 5.29199 4.74215 5.44489 4.46998 5.71705C4.19782 5.98922 4.04492 6.35835 4.04492 6.74324Z" stroke="#717182" stroke-width="1.33" stroke-linecap="round" stroke-linejoin="round"/>
</svg>
