<svg width="18" height="18" viewBox="0 0 18 18" fill="none" xmlns="http://www.w3.org/2000/svg">
<path d="M6.75 16.5H11.25C15 16.5 16.5 15 16.5 11.25V6.75C16.5 3 15 1.5 11.25 1.5H6.75C3 1.5 1.5 3 1.5 6.75V11.25C1.5 15 3 16.5 6.75 16.5Z" stroke="black" stroke-width="1.2" stroke-linecap="round" stroke-linejoin="round"/>
<path d="M11.6777 13.8752V10.9502" stroke="black" stroke-width="1.2" stroke-miterlimit="10" stroke-linecap="round" stroke-linejoin="round"/>
<path d="M11.6777 5.5875V4.125" stroke="black" stroke-width="1.2" stroke-miterlimit="10" stroke-linecap="round" stroke-linejoin="round"/>
<path d="M11.6775 9.48789C12.7545 9.48789 13.6275 8.61485 13.6275 7.53789C13.6275 6.46094 12.7545 5.58789 11.6775 5.58789C10.6006 5.58789 9.72754 6.46094 9.72754 7.53789C9.72754 8.61485 10.6006 9.48789 11.6775 9.48789Z" stroke="black" stroke-width="1.2" stroke-miterlimit="10" stroke-linecap="round" stroke-linejoin="round"/>
<path d="M6.32227 13.8746V12.4121" stroke="black" stroke-width="1.2" stroke-miterlimit="10" stroke-linecap="round" stroke-linejoin="round"/>
<path d="M6.32227 7.05V4.125" stroke="black" stroke-width="1.2" stroke-miterlimit="10" stroke-linecap="round" stroke-linejoin="round"/>
<path d="M6.32256 12.4127C7.39951 12.4127 8.27256 11.5396 8.27256 10.4627C8.27256 9.38574 7.39951 8.5127 6.32256 8.5127C5.2456 8.5127 4.37256 9.38574 4.37256 10.4627C4.37256 11.5396 5.2456 12.4127 6.32256 12.4127Z" stroke="black" stroke-width="1.2" stroke-miterlimit="10" stroke-linecap="round" stroke-linejoin="round"/>
</svg>
