<svg width="70" height="70" viewBox="0 0 70 70" fill="none" xmlns="http://www.w3.org/2000/svg">
<rect width="70" height="70" rx="35" fill="#DCFCE7"/>
<path d="M52.1516 31.5001C52.9508 35.4224 52.3812 39.5001 50.5378 43.0532C48.6944 46.6064 45.6886 49.4202 42.0217 51.0254C38.3548 52.6306 34.2484 52.9302 30.3873 51.8742C26.5263 50.8183 23.1439 48.4705 20.8043 45.2226C18.4647 41.9746 17.3093 38.0228 17.5307 34.026C17.7522 30.0293 19.3371 26.2293 22.0212 23.2597C24.7053 20.29 28.3263 18.3304 32.2804 17.7074C36.2345 17.0844 40.2827 17.8359 43.7498 19.8364" stroke="#00A63E" stroke-width="3.5" stroke-linecap="round" stroke-linejoin="round"/>
<path d="M29.75 33.25L35 38.5L52.5 21" stroke="#00A63E" stroke-width="3.5" stroke-linecap="round" stroke-linejoin="round"/>
</svg>
